<?xml version="1.0" encoding="utf-8"?>
<!-- Generator: Adobe Illustrator 25.4.1, SVG Export Plug-In . SVG Version: 6.00 Build 0)  -->
<svg version="1.1" xmlns="http://www.w3.org/2000/svg" xmlns:xlink="http://www.w3.org/1999/xlink" x="0px" y="0px"
	 viewBox="0 0 332 165" style="enable-background:new 0 0 332 165;" xml:space="preserve">
<style type="text/css">
	.st0{display:none;}
	.st1{display:inline;fill:#131928;}
	.st2{display:inline;fill-rule:evenodd;clip-rule:evenodd;fill:url(#SVGID_1_);}
	.st3{display:inline;opacity:0.2;fill-rule:evenodd;clip-rule:evenodd;fill:#131928;enable-background:new    ;}
	.st4{display:inline;fill-rule:evenodd;clip-rule:evenodd;fill:url(#SVGID_00000107547611137416068500000000682554028121666493_);}
	.st5{display:inline;fill:#FFFFFF;}
	.st6{clip-path:url(#SVGID_00000075121532993038172260000010488507492674089653_);}
	.st7{fill:url(#SVGID_00000067203450926591203460000015697800340221173431_);}
	.st8{fill:url(#SVGID_00000121997476879185389690000001763535732276910005_);}
	.st9{font-family:'CircularStd-Bold';}
	.st10{font-size:44.5967px;}
	.st11{letter-spacing:-1;}
	.st12{clip-path:url(#SVGID_00000123439529081104829850000012985375881096420527_);}
	.st13{clip-path:url(#SVGID_00000062876175944841974560000004743930013514338978_);}
	.st14{fill:url(#SVGID_00000153704373949006097200000013857543147435200179_);}
	.st15{fill:url(#SVGID_00000055696152228622225050000017899806581990603449_);}
</style>
<g id="Layer_1" class="st0">
	<circle class="st1" cx="170" cy="52" r="28"/>
	
		<linearGradient id="SVGID_1_" gradientUnits="userSpaceOnUse" x1="142" y1="141.8898" x2="211.5" y2="72.3898" gradientTransform="matrix(1 0 0 -1 0 165.8898)">
		<stop  offset="0" style="stop-color:#C395FC"/>
		<stop  offset="1" style="stop-color:#4F65F5"/>
	</linearGradient>
	<path class="st2" d="M166,96c26.5,0,48-21.5,48-48S192.5,0,166,0s-48,21.5-48,48S139.5,96,166,96z M198,52c0,15.5-12.5,28-28,28
		s-28-12.5-28-28c0-2.9,0.4-5.6,1.2-8.2c2.2,4.9,7.1,8.2,12.8,8.2c7.7,0,14-6.3,14-14c0-5.7-3.4-10.6-8.2-12.8
		c2.6-0.8,5.4-1.2,8.2-1.2C185.5,24,198,36.5,198,52z"/>
	<path class="st3" d="M198,52c0,15.5-12.5,28-28,28c-15.1,0-27.5-12-28-27c0,0.3,0,0.7,0,1c0,16.6,13.4,30,30,30s30-13.4,30-30
		c0-16.6-13.4-30-30-30c-0.3,0-0.7,0-1,0C186,24.5,198,36.9,198,52z"/>
	
		<linearGradient id="SVGID_00000182494827741284382010000009284680246261261196_" gradientUnits="userSpaceOnUse" x1="146" y1="157.8898" x2="146" y2="117.8898" gradientTransform="matrix(1 0 0 -1 0 165.8898)">
		<stop  offset="0" style="stop-color:#FFFFFF;stop-opacity:0.4"/>
		<stop  offset="1" style="stop-color:#FFFFFF;stop-opacity:0"/>
	</linearGradient>
	
		<path style="display:inline;fill-rule:evenodd;clip-rule:evenodd;fill:url(#SVGID_00000182494827741284382010000009284680246261261196_);" d="
		M166,12c-19.9,0-36,16.1-36,36c0,2.2-1.8,4-4,4s-4-1.8-4-4c0-24.3,19.7-44,44-44c2.2,0,4,1.8,4,4C170,10.2,168.2,12,166,12z"/>
	<path class="st5" d="M19.8,165c-3.7,0-7.1-0.8-10.1-2.5c-3-1.7-5.4-4.1-7.1-7.2c-1.7-3.1-2.6-6.7-2.6-10.8c0-4,0.9-7.6,2.7-10.7
		c1.8-3.1,4.2-5.5,7.3-7.2c3.1-1.7,6.5-2.5,10.3-2.5c3.8,0,7.2,0.8,10.3,2.5c3.1,1.7,5.5,4.1,7.3,7.2c1.8,3.1,2.7,6.7,2.7,10.7
		c0,4-0.9,7.6-2.7,10.7c-1.8,3.1-4.3,5.5-7.5,7.3C27,164.2,23.6,165,19.8,165z M19.8,157.9c2.1,0,4.1-0.5,5.9-1.5
		c1.9-1,3.4-2.5,4.5-4.5c1.1-2,1.7-4.5,1.7-7.3c0-2.9-0.6-5.3-1.7-7.3c-1.1-2-2.6-3.5-4.4-4.5c-1.8-1-3.8-1.5-5.9-1.5
		s-4.1,0.5-5.9,1.5c-1.8,1-3.2,2.5-4.2,4.5c-1.1,2-1.6,4.4-1.6,7.3c0,4.3,1.1,7.6,3.2,9.9C13.8,156.7,16.5,157.9,19.8,157.9z"/>
	<path class="st5" d="M63,157l11.2-32.4h8.7l-15.1,39.7h-9.8l-15-39.7h8.8L63,157z"/>
	<path class="st5" d="M124.7,143.5c0,1.5-0.1,2.8-0.3,4H94.1c0.2,3.2,1.4,5.7,3.5,7.6c2.1,1.9,4.7,2.9,7.8,2.9
		c4.4,0,7.5-1.8,9.3-5.5h8.8c-1.2,3.7-3.4,6.7-6.5,9c-3.1,2.3-7,3.5-11.6,3.5c-3.8,0-7.2-0.8-10.2-2.5c-3-1.7-5.3-4.1-7-7.2
		c-1.7-3.1-2.5-6.7-2.5-10.8c0-4.1,0.8-7.7,2.4-10.7c1.7-3.1,4-5.5,7-7.2c3-1.7,6.5-2.5,10.3-2.5c3.7,0,7.1,0.8,10,2.4
		c2.9,1.6,5.2,3.9,6.8,6.9C123.8,136.3,124.7,139.7,124.7,143.5z M116.1,140.9c0-3-1.1-5.5-3.2-7.3c-2.1-1.8-4.7-2.7-7.8-2.7
		c-2.8,0-5.2,0.9-7.3,2.7c-2,1.8-3.2,4.2-3.6,7.3H116.1z"/>
	<path class="st5" d="M140.9,130.4c1.2-2,2.8-3.6,4.7-4.7c2-1.2,4.4-1.7,7.1-1.7v8.5h-2.1c-3.2,0-5.6,0.8-7.3,2.4
		c-1.6,1.6-2.4,4.5-2.4,8.5v20.9h-8.2v-39.7h8.2V130.4z"/>
	<path class="st5" d="M173.2,165c-3.1,0-5.9-0.6-8.4-1.7c-2.4-1.2-4.4-2.7-5.8-4.6c-1.4-2-2.2-4.2-2.3-6.6h8.5
		c0.1,1.7,0.9,3.1,2.4,4.3c1.5,1.1,3.3,1.7,5.5,1.7c2.3,0,4.1-0.4,5.3-1.3c1.3-0.9,1.9-2.1,1.9-3.5c0-1.5-0.7-2.6-2.2-3.3
		c-1.4-0.7-3.6-1.5-6.7-2.4c-3-0.8-5.4-1.6-7.3-2.4c-1.9-0.8-3.5-1.9-4.9-3.5c-1.3-1.6-2-3.7-2-6.3c0-2.1,0.6-4,1.9-5.8
		c1.2-1.8,3-3.2,5.3-4.2c2.3-1,5-1.5,8-1.5c4.5,0,8.1,1.2,10.8,3.5c2.8,2.3,4.3,5.4,4.5,9.3h-8.2c-0.1-1.8-0.9-3.2-2.2-4.3
		c-1.3-1.1-3-1.6-5.2-1.6c-2.2,0-3.8,0.4-5,1.2c-1.1,0.8-1.7,1.9-1.7,3.2c0,1.1,0.4,1.9,1.1,2.7c0.8,0.7,1.7,1.3,2.8,1.7
		c1.1,0.4,2.7,0.9,4.9,1.5c2.9,0.8,5.2,1.6,7,2.4c1.9,0.8,3.5,1.9,4.8,3.5c1.3,1.5,2,3.6,2.1,6.1c0,2.3-0.6,4.3-1.9,6.1
		c-1.2,1.8-3,3.2-5.3,4.2C178.9,164.5,176.3,165,173.2,165z"/>
	<path class="st5" d="M232.7,143.5c0,1.5-0.1,2.8-0.3,4h-30.2c0.2,3.2,1.4,5.7,3.5,7.6c2.1,1.9,4.7,2.9,7.8,2.9
		c4.4,0,7.5-1.8,9.3-5.5h8.8c-1.2,3.7-3.4,6.7-6.5,9c-3.1,2.3-7,3.5-11.6,3.5c-3.8,0-7.2-0.8-10.2-2.5c-3-1.7-5.3-4.1-7-7.2
		c-1.7-3.1-2.5-6.7-2.5-10.8c0-4.1,0.8-7.7,2.4-10.7c1.7-3.1,4-5.5,7-7.2c3-1.7,6.5-2.5,10.3-2.5c3.7,0,7.1,0.8,10,2.4
		c2.9,1.6,5.2,3.9,6.8,6.9C231.9,136.3,232.7,139.7,232.7,143.5z M224.2,140.9c0-3-1.1-5.5-3.2-7.3c-2.1-1.8-4.7-2.7-7.8-2.7
		c-2.8,0-5.2,0.9-7.3,2.7c-2,1.8-3.2,4.2-3.6,7.3H224.2z"/>
	<path class="st5" d="M277.1,143.5c0,1.5-0.1,2.8-0.3,4h-30.2c0.2,3.2,1.4,5.7,3.5,7.6c2.1,1.9,4.7,2.9,7.8,2.9
		c4.4,0,7.5-1.8,9.3-5.5h8.8c-1.2,3.7-3.4,6.7-6.5,9c-3.1,2.3-7,3.5-11.6,3.5c-3.8,0-7.2-0.8-10.2-2.5c-3-1.7-5.3-4.1-7-7.2
		c-1.7-3.1-2.5-6.7-2.5-10.8c0-4.1,0.8-7.7,2.4-10.7c1.7-3.1,4-5.5,7-7.2c3-1.7,6.5-2.5,10.3-2.5c3.7,0,7.1,0.8,10,2.4
		c2.9,1.6,5.2,3.9,6.8,6.9C276.3,136.3,277.1,139.7,277.1,143.5z M268.5,140.9c0-3-1.1-5.5-3.2-7.3c-2.1-1.8-4.7-2.7-7.8-2.7
		c-2.8,0-5.2,0.9-7.3,2.7c-2,1.8-3.2,4.2-3.6,7.3H268.5z"/>
	<path class="st5" d="M293.3,130.4c1.2-2,2.8-3.6,4.7-4.7c2-1.2,4.4-1.7,7.1-1.7v8.5h-2.1c-3.2,0-5.6,0.8-7.3,2.4
		c-1.6,1.6-2.4,4.5-2.4,8.5v20.9h-8.2v-39.7h8.2V130.4z"/>
	<path class="st5" d="M320.2,130.4c1.2-2,2.8-3.6,4.7-4.7c2-1.2,4.4-1.7,7.1-1.7v8.5h-2.1c-3.2,0-5.6,0.8-7.3,2.4
		c-1.6,1.6-2.4,4.5-2.4,8.5v20.9H312v-39.7h8.2V130.4z"/>
</g>
<g id="Layer_2">
	<g>
		<defs>
			<path id="SVGID_00000153664760496318793380000009474075601705333681_" d="M146.4,100.4c-5.9,0-11.8,0-17.7,0c-0.2,0-0.4,0-0.6,0
				c-0.3,0-0.5-0.2-0.6-0.5c-0.9-2.7,0.3-5.4,3-6.5c1.5-0.6,3-0.9,4.6-0.9c2.5,0,5,0.1,7.5,0c3.2-0.1,6.3-0.5,9.3-1.5
				c1-0.4,2-0.8,2.9-1.5c1.2-1,1.8-2.2,1.7-3.8c-0.1-1.3-0.2-2.6-0.4-3.9c-0.5-3.2-1.6-6.2-3.2-9c-1.3-2.2-2.6-4.3-3.8-6.5
				c-1.4-2.6-2.4-5.4-2.8-8.4c-0.1-0.4-0.2-0.6-0.6-0.8c-1.2-0.6-2.3-1.2-3.5-1.8c-2-1-4-2.2-5.8-3.5c-0.5-0.3-0.5-0.4-0.7,0.2
				c-0.6,1.7-1.1,3.3-1.6,5c-0.7,2.6-1.2,5.2-1.4,7.9c-0.1,0.9-0.1,1.8,0,2.7c0,0.7,0.5,1.2,1.1,1.6c0.5,0.3,1.1,0.6,1.6,0.9
				c0.4,0.3,0.9,0.6,1.2,0.9c1.4,1.6,1,3.8-0.9,4.9c-1.1,0.6-2.2,0.7-3.4,0.5c-3.6-0.6-6.4-3.6-7.1-7.2c-0.4-2.1-0.2-4.2,0.2-6.3
				c0.4-2.2,0.9-4.3,1.4-6.4c0.3-1.4,0-2.6-0.8-3.8c-0.6-0.9-1.3-1.7-2-2.6c-1.3-1.7-2.3-3.5-2.7-5.6c-0.6-3.2-0.1-6.3,1.6-9.2
				c0.2-0.4,0.3-0.8,0.1-1.2c-0.7-1.8-1.2-3.7-1.3-5.6c-0.1-1.6,0-3.2,0-4.8c0.1-2.4,0.8-4.6,1.3-6.9c0.1-0.6,0.1-0.6-0.4-0.8
				c-1.4-0.6-2.8-1.5-3.9-2.6c-1.9-1.9-3.1-4.3-3.8-6.9C114.2,5,113.9,3.5,114,2c0-0.7,0.1-0.8,0.8-0.8c3.6-0.4,6.5,1.1,8.7,3.9
				c1.5,1.9,2.4,4.1,2.6,6.5c0,0.6,0,1.2-0.1,1.8c-0.1,0.7,0,0.8,0.8,0.9c0.9,0.1,1.8,0.2,2.8,0.3c2.1,0.3,4,1.2,5.6,2.6
				c2.8,2.5,5.7,4.8,8.8,6.8c1.6,1,2.2,2.4,1.7,4.4c-0.6,2.1-1.8,3.6-4,4.3c-1,0.3-2,0.1-3-0.1c-1.6-0.3-3.1-0.6-4.7-0.5
				c-2.2,0.1-4.4,0.5-6.3,1.8c-0.4,0.3-0.8,0.6-1.2,0.9c-0.4,0.4-0.4,0.4-0.2,0.9c0.7,1.3,1.4,2.5,2.2,3.7c1.7,2.6,3.7,4.9,5.9,7.1
				c0.1,0.1,0.2,0.2,0.3,0.3c0.2,0.3,0.4,0.3,0.6-0.1c0.5-0.8,1.1-1.7,1.7-2.5c2.1-2.8,4.5-5.3,7.4-7.2c3.1-2.1,6.5-3.4,10.2-4
				c2.6-0.5,5.2-0.6,7.7-0.4c3.7,0.3,7.1,1.3,10.2,3.3c6.1,3.9,10,9.4,11.3,16.6c0.2,1.2,0.3,2.5,0.4,3.8c0.3,4.2-0.3,8.3-1.1,12.4
				c-0.8,3.7-1.7,7.3-2.5,11c-0.5,2.2-0.9,4.5-0.8,6.8c0,0.6,0.1,1.2,0.2,1.8c0.1,0.5,0.3,0.8,0.8,1c1.8,0.9,3.7,1.5,5.7,1.9
				c2.6,0.4,5.3,0.5,7.9,0.5c3-0.1,6-0.3,8.9-0.3c3.7,0,7.3,0.6,10.7,2c2.3,1,4.5,2.2,6.1,4.1c0.6,0.7,1.2,1.6,1.7,2.4
				c0.2,0.3,0.1,0.4-0.3,0.4c-0.2,0-0.3,0-0.5,0c-9.6,0-19.1,0-28.7,0c-3.2,0-6.2-0.8-8.9-2.6c-2.4-1.6-4.1-3.8-5.3-6.4
				c-0.1-0.3-0.3-0.6-0.6-0.8c-2.2-1.5-3.9-3.5-5.1-5.8c-1.8-3.2-2.9-6.6-3.4-10.2c-0.2-1.9-0.3-3.8-0.1-5.6
				c0.4-2.5,0.7-4.9,1.1-7.4c0.5-3.3,0.6-6.6-0.6-9.8c-1.5-4-4.4-6.5-8.6-7.5c-1.8-0.4-3.6-0.1-5.4,0.5c-2.3,0.8-4.2,2.3-5.5,4.4
				c-0.8,1.3-1.2,2.6-1.4,4.1c-0.1,0.7-0.1,1.4-0.1,2c0,0.3,0.1,0.5,0.4,0.7c2.6,1.6,4.9,3.4,7,5.7c4.1,4.4,7.4,9.3,9.3,15.1
				c0.9,2.7,1.5,5.4,1.7,8.2c0.1,2.1,0.2,4.2,0.1,6.3c-0.1,2.8-0.6,5.6-1.6,8.3c-0.3,0.8-0.3,0.8-1.1,0.8
				C158.3,100.4,152.3,100.4,146.4,100.4z M160,35.3c-0.9,0-1.8,0-2.7,0.1c-0.9,0.1-1.8,0.2-2.8,0.4c-3.3,0.6-6.3,1.8-9,3.7
				c-2.3,1.6-4.3,3.6-6,5.9c-0.8,1-1.4,2-2.1,3.1c-0.3,0.5-0.3,0.5,0.1,0.8c0.5,0.4,0.9,0.7,1.4,1c2,1.4,4.1,2.4,6.3,3.5
				c0.7,0.4,0.7,0.4,0.8-0.4c0,0,0,0,0-0.1c0.4-4.3,2.4-7.7,6.1-9.9c2.6-1.6,5.4-2.4,8.4-2c5.7,0.9,9.6,4,11.6,9.4
				c1.3,3.5,1.3,7,0.8,10.6c-0.4,2.6-0.8,5.1-1.2,7.7c-0.2,1.3-0.2,2.6-0.1,4c0.2,2.5,0.8,4.9,1.7,7.2c0.8,2.1,1.9,4.1,3.4,5.8
				c0.1,0.1,0.2,0.2,0.3,0.2c0-0.1,0.1-0.2,0.1-0.3c0-2.5,0.5-5,1-7.4c0.8-3.4,1.5-6.7,2.3-10.1c0.7-3,1.1-6.1,1.2-9.1
				c0.1-2.3-0.1-4.6-0.5-6.9c-1.4-6.7-5.3-11.7-11.2-15C166.8,35.9,163.5,35.2,160,35.3z M146.5,97.7c2.4,0,4.8,0,7.2,0
				c2.9,0,5.9,0,8.8,0c0.7,0,0.7,0,0.8-0.6c0.5-2,0.9-4,0.9-6c0.1-2,0-4.1-0.1-6.2c-0.1-2.5-0.7-5-1.5-7.4
				c-1.2-3.7-3.1-7.1-5.5-10.2c-2.1-2.8-4.5-5.4-7.3-7.5c-0.2-0.2-0.4-0.2-0.7-0.4c0,0.3,0.1,0.5,0.2,0.8c0.7,2.4,1.8,4.6,3,6.7
				c1.3,2.2,2.6,4.4,3.8,6.6c1.3,2.5,2.2,5.3,2.5,8.2c0.2,1.2,0.3,2.5,0.4,3.7c0.1,2.1-0.4,4-2,5.5c-1.2,1.2-2.6,1.9-4.2,2.5
				c-3.3,1.2-6.7,1.6-10.1,1.7c-2.7,0.1-5.4,0-8.1,0c-1,0-2,0.2-2.9,0.6c-0.6,0.3-1.2,0.6-1.5,1.2c-0.1,0.2-0.2,0.5-0.2,0.7
				c0.2,0,0.5,0.1,0.7,0.1C135.9,97.7,141.2,97.7,146.5,97.7z M123.9,26.2c0.1,1,0.1,2,0.3,3.1c0.1,0.9,0.3,1.7,0.6,2.6
				c0.2,0.7,0.2,0.6,0.7,0.3c0.4-0.3,0.7-0.5,1.1-0.7c3.2-1.8,6.7-2.2,10.3-1.7c1.1,0.2,2.3,0.4,3.4,0.5c0.8,0.1,1.5-0.2,2-0.9
				c0.3-0.4,0.6-0.9,0.8-1.3c0.3-0.8,0.1-1.3-0.6-1.7c-1.1-0.7-2.1-1.4-3.1-2.2c-1.9-1.5-3.8-3-5.6-4.6c-0.9-0.7-1.8-1.5-3-1.9
				c-1.6-0.6-3.2-0.6-4.8-0.8c-0.3,0-0.4,0.1-0.5,0.4c-0.1,0.4-0.2,0.7-0.2,1.1C124.5,20.9,123.9,23.5,123.9,26.2z M127.3,66.7
				c0,0.3,0,0.5,0,0.8c0,2,0.8,3.7,2.3,4.9c1.1,0.9,2.3,1.4,3.8,1.2c0.4,0,0.8-0.1,0.9-0.5c0.1-0.4-0.3-0.6-0.6-0.7
				c-0.7-0.4-1.4-0.8-2-1.2c-1.3-0.9-2-2.2-2.1-3.9c-0.1-2.1,0.2-4.2,0.6-6.3c0.7-3.8,1.5-7.5,3.1-11c0.2-0.4,0.1-0.7-0.2-0.9
				c-0.8-0.8-1.7-1.6-2.5-2.5c-1.8-1.9-3.4-4-4.8-6.3c-0.5-0.7-0.9-1.5-1.3-2.2c0-0.1-0.1-0.2-0.2-0.2c-0.1,0.1-0.2,0.2-0.2,0.3
				c0,0.1-0.1,0.1-0.1,0.2c-0.7,2-0.8,4-0.3,6.1c0.4,1.7,1.3,3.1,2.4,4.4c0.8,1,1.5,1.9,2.2,2.9c0.9,1.4,1.3,3,0.9,4.6
				c-0.3,1.3-0.6,2.6-0.8,3.9C127.9,62.5,127.3,64.6,127.3,66.7z M204,97.7c3.8,0,7.7,0,11.5,0c0.2,0,0.4,0,0.6-0.1
				c-0.2-0.1-0.3-0.3-0.5-0.4c-1.2-0.6-2.3-1.2-3.6-1.7c-2.9-1.1-5.9-1.5-9-1.5c-2.8,0-5.5,0.2-8.3,0.2c-2,0-4-0.1-6-0.1
				c-0.5,0-1.1-0.1-1.6-0.2c-1.5-0.2-3-0.5-4.5-1c-0.1,0-0.2,0-0.2,0c0,0.1,0.1,0.1,0.1,0.2c1.5,1.8,3.3,3,5.5,3.8
				c1.5,0.5,3.2,0.7,4.8,0.7C196.5,97.7,200.3,97.7,204,97.7z M123.3,11.8c-0.1-2-1-4-2.6-5.8c-1-1-2.1-1.7-3.5-2
				c-0.4-0.1-0.5,0-0.4,0.4c0.2,0.9,0.4,1.8,0.7,2.7c0.9,2.5,2.3,4.5,4.6,5.8C123.3,13.5,123.3,13.5,123.3,11.8z"/>
		</defs>
		<clipPath id="SVGID_00000126298765699083175530000005598696430305965193_">
			<use xlink:href="#SVGID_00000153664760496318793380000009474075601705333681_"  style="overflow:visible;"/>
		</clipPath>
		<g style="clip-path:url(#SVGID_00000126298765699083175530000005598696430305965193_);">
			
				<linearGradient id="SVGID_00000182516025307907235870000015410265540587919267_" gradientUnits="userSpaceOnUse" x1="-719.4803" y1="91.4264" x2="-490.0803" y2="-1.199458e-03" gradientTransform="matrix(-1 0 0 1 -456.6815 0)">
				<stop  offset="0" style="stop-color:#EE7B20"/>
				<stop  offset="0.1869" style="stop-color:#EF7A28"/>
				<stop  offset="0.217" style="stop-color:#EC6E30"/>
				<stop  offset="0.3505" style="stop-color:#E33F52"/>
				<stop  offset="0.4684" style="stop-color:#DC1D6B"/>
				<stop  offset="0.5653" style="stop-color:#D8087A"/>
				<stop  offset="0.629" style="stop-color:#D6007F"/>
				<stop  offset="1" style="stop-color:#94599C"/>
			</linearGradient>
			<polygon style="fill:url(#SVGID_00000182516025307907235870000015410265540587919267_);" points="248.2,-11.1 248.2,112.6 
				73.3,112.6 73.3,-11.1 			"/>
			
				<linearGradient id="SVGID_00000139259551973644917210000011525284493628316844_" gradientUnits="userSpaceOnUse" x1="127.1257" y1="-68.3218" x2="170.3142" y2="84.6678">
				<stop  offset="0.15" style="stop-color:#671566"/>
				<stop  offset="0.8402" style="stop-color:#E4C2DD;stop-opacity:2.691383e-02"/>
			</linearGradient>
			<polygon style="fill:url(#SVGID_00000139259551973644917210000011525284493628316844_);" points="248.2,-11.1 248.2,112.6 
				73.3,112.6 73.3,-11.1 			"/>
		</g>
	</g>
	<g>
		<defs>
			
				<text id="SVGID_00000002374175481463781630000012972574594130526135_" transform="matrix(1 0 0 1 0 160.9387)" class="st9 st10 st11">WAALLABY-NET</text>
		</defs>
		<clipPath id="SVGID_00000061456203957726654510000002137883061871231679_">
			<use xlink:href="#SVGID_00000002374175481463781630000012972574594130526135_"  style="overflow:visible;"/>
		</clipPath>
		<g style="clip-path:url(#SVGID_00000061456203957726654510000002137883061871231679_);">
			<defs>
				
					<text id="SVGID_00000173125504787747826520000015519173394221672853_" transform="matrix(1 0 0 1 0 160.9387)" class="st9 st10 st11">WAALLABY-NET</text>
			</defs>
			<clipPath id="SVGID_00000109001314845102713890000006510902805829670018_">
				<use xlink:href="#SVGID_00000173125504787747826520000015519173394221672853_"  style="overflow:visible;"/>
			</clipPath>
			<g style="clip-path:url(#SVGID_00000109001314845102713890000006510902805829670018_);">
				
					<linearGradient id="SVGID_00000062903695154554207110000003517926934938920875_" gradientUnits="userSpaceOnUse" x1="-3913.2864" y1="2045.2314" x2="-3521.8557" y2="1889.2264" gradientTransform="matrix(1 0 0 -1 3904.8884 2126.856)">
					<stop  offset="0" style="stop-color:#EE7B20"/>
					<stop  offset="0.1869" style="stop-color:#EF7A28"/>
					<stop  offset="0.217" style="stop-color:#EC6E30"/>
					<stop  offset="0.3505" style="stop-color:#E33F52"/>
					<stop  offset="0.4684" style="stop-color:#DC1D6B"/>
					<stop  offset="0.5653" style="stop-color:#D8087A"/>
					<stop  offset="0.629" style="stop-color:#D6007F"/>
					<stop  offset="1" style="stop-color:#94599C"/>
				</linearGradient>
				<polygon style="fill:url(#SVGID_00000062903695154554207110000003517926934938920875_);" points="-3.8,205.5 -3.8,96.6 
					335.3,96.6 335.3,205.5 				"/>
				
					<linearGradient id="SVGID_00000071549857204462106800000009384066704463242421_" gradientUnits="userSpaceOnUse" x1="3242.7097" y1="1835.0205" x2="3293.7808" y2="2015.933" gradientTransform="matrix(-1 0 0 -1 3448.207 2126.856)">
					<stop  offset="0.15" style="stop-color:#671566"/>
					<stop  offset="0.8402" style="stop-color:#E4C2DD;stop-opacity:2.691383e-02"/>
				</linearGradient>
				<polygon style="fill:url(#SVGID_00000071549857204462106800000009384066704463242421_);" points="-3.8,205.5 -3.8,96.6 
					335.3,96.6 335.3,205.5 				"/>
			</g>
		</g>
	</g>
</g>
</svg>
