<?xml version="1.0" encoding="utf-8"?>
<!-- Generator: Adobe Illustrator 25.4.1, SVG Export Plug-In . SVG Version: 6.00 Build 0)  -->
<svg version="1.1" id="Layer_1" xmlns="http://www.w3.org/2000/svg" xmlns:xlink="http://www.w3.org/1999/xlink" x="0px" y="0px"
	 viewBox="0 0 456 96" style="enable-background:new 0 0 456 96;" xml:space="preserve">
<style type="text/css">
	.st0{clip-path:url(#SVGID_00000056407145611911086560000017038124242042087615_);}
	.st1{fill:url(#SVGID_00000128466719098688451960000003793270897085978753_);}
	.st2{fill:url(#SVGID_00000085948769081254886480000017615140602559711883_);}
	.st3{font-family:'CircularStd-Bold';}
	.st4{font-size:48.3126px;}
	.st5{letter-spacing:-1;}
	.st6{clip-path:url(#SVGID_00000002358489583193826320000012994105304800647085_);}
	.st7{clip-path:url(#SVGID_00000086660983487856466630000009331856387941575341_);}
	.st8{fill:url(#SVGID_00000057109700793283704450000014776844530038693557_);}
	.st9{fill:url(#SVGID_00000165199673930827818250000002786042816214492814_);}
</style>
<g>
	<defs>
		<path id="SVGID_1_" d="M31.4,95.2c-5.6,0-11.3,0-16.9,0c-0.2,0-0.4,0-0.6,0c-0.3,0-0.5-0.1-0.6-0.5c-0.8-2.6,0.3-5.2,2.8-6.2
			c1.4-0.6,2.9-0.9,4.4-0.9c2.4,0,4.8,0.1,7.1,0c3-0.1,6-0.4,8.9-1.4c1-0.3,1.9-0.8,2.8-1.4c1.2-0.9,1.7-2.1,1.6-3.6
			c-0.1-1.3-0.2-2.5-0.4-3.8c-0.4-3.1-1.5-5.9-3.1-8.6c-1.2-2.1-2.5-4.1-3.6-6.2c-1.4-2.5-2.3-5.1-2.7-8c0-0.4-0.2-0.6-0.6-0.7
			c-1.1-0.6-2.2-1.2-3.4-1.7c-1.9-1-3.8-2.1-5.6-3.4c-0.5-0.3-0.5-0.3-0.7,0.2c-0.5,1.6-1.1,3.2-1.5,4.8c-0.7,2.5-1.1,5-1.4,7.6
			c-0.1,0.9,0,1.7,0,2.6c0,0.7,0.5,1.2,1,1.5c0.5,0.3,1,0.6,1.5,0.9c0.4,0.3,0.8,0.5,1.2,0.9c1.3,1.5,0.9,3.7-0.9,4.6
			c-1,0.6-2.1,0.7-3.3,0.5c-3.4-0.6-6.1-3.4-6.8-6.8c-0.4-2-0.2-4,0.2-6c0.4-2.1,0.9-4.1,1.3-6.1c0.3-1.3,0-2.5-0.8-3.6
			c-0.6-0.9-1.3-1.7-1.9-2.5C8.4,45.8,7.5,44,7.1,42c-0.5-3.1-0.1-6,1.5-8.8c0.2-0.4,0.3-0.7,0.1-1.2c-0.6-1.7-1.1-3.5-1.2-5.4
			c-0.1-1.5,0-3.1,0-4.6c0.1-2.2,0.7-4.4,1.2-6.6c0.1-0.5,0.1-0.6-0.4-0.8c-1.4-0.6-2.6-1.4-3.7-2.5c-1.8-1.8-3-4.1-3.6-6.6
			C0.7,4.3,0.4,2.9,0.5,1.5c0-0.7,0.1-0.7,0.8-0.8c3.5-0.4,6.2,1,8.3,3.7c1.4,1.8,2.3,3.9,2.4,6.2c0,0.6,0,1.1-0.1,1.7
			c-0.1,0.7,0,0.8,0.7,0.9c0.9,0.1,1.8,0.2,2.6,0.3c2,0.3,3.8,1.2,5.4,2.5c2.7,2.3,5.4,4.6,8.4,6.5c1.5,0.9,2.1,2.3,1.6,4.2
			c-0.5,2-1.7,3.5-3.8,4.1c-1,0.3-1.9,0.1-2.9-0.1c-1.5-0.3-3-0.5-4.5-0.5c-2.1,0.1-4.2,0.5-6,1.7c-0.4,0.3-0.8,0.5-1.1,0.8
			c-0.4,0.3-0.4,0.4-0.2,0.9c0.7,1.2,1.3,2.4,2.1,3.6c1.6,2.5,3.5,4.7,5.6,6.8c0.1,0.1,0.2,0.2,0.3,0.3c0.2,0.3,0.4,0.3,0.6-0.1
			c0.5-0.8,1.1-1.6,1.6-2.4c2-2.7,4.3-5,7.1-6.9c3-2,6.2-3.2,9.7-3.8c2.4-0.4,4.9-0.6,7.4-0.4c3.5,0.2,6.8,1.3,9.8,3.2
			c5.8,3.7,9.5,9,10.8,15.8c0.2,1.2,0.3,2.4,0.4,3.6c0.3,4-0.3,7.9-1.1,11.8c-0.7,3.5-1.6,7-2.4,10.5c-0.5,2.1-0.9,4.3-0.8,6.5
			c0,0.6,0.1,1.2,0.2,1.7c0.1,0.5,0.3,0.7,0.7,0.9c1.7,0.9,3.5,1.5,5.4,1.8c2.5,0.4,5,0.5,7.5,0.4c2.8-0.1,5.7-0.2,8.5-0.2
			c3.5,0,7,0.6,10.2,2c2.2,0.9,4.2,2.1,5.8,3.9c0.6,0.7,1.1,1.5,1.6,2.3c0.2,0.3,0.1,0.4-0.2,0.4c-0.2,0-0.3,0-0.5,0
			c-9.1,0-18.3,0-27.4,0c-3.1,0-5.9-0.8-8.5-2.5c-2.3-1.6-3.9-3.6-5.1-6.1c-0.1-0.3-0.3-0.5-0.6-0.7c-2.1-1.5-3.7-3.3-4.9-5.5
			c-1.7-3-2.8-6.3-3.3-9.8c-0.2-1.8-0.3-3.6-0.1-5.4c0.3-2.4,0.7-4.7,1.1-7c0.5-3.1,0.6-6.3-0.6-9.3c-1.4-3.9-4.2-6.2-8.2-7.2
			c-1.8-0.4-3.5-0.1-5.2,0.5c-2.2,0.8-4,2.2-5.2,4.2c-0.7,1.2-1.1,2.5-1.3,3.9c-0.1,0.6-0.1,1.3-0.1,2c0,0.3,0.1,0.5,0.4,0.7
			c2.5,1.5,4.7,3.3,6.7,5.4c3.9,4.2,7,8.9,8.9,14.4c0.8,2.6,1.5,5.2,1.6,7.9c0.1,2,0.2,4,0.1,6c-0.1,2.7-0.6,5.4-1.5,7.9
			c-0.3,0.8-0.3,0.8-1.1,0.8C42.8,95.3,37.1,95.2,31.4,95.2z M44.3,33.2c-0.9,0-1.7,0-2.6,0.1c-0.9,0.1-1.8,0.2-2.6,0.4
			c-3.1,0.6-6,1.7-8.6,3.6c-2.2,1.6-4.1,3.5-5.7,5.6c-0.7,0.9-1.4,1.9-2,2.9c-0.3,0.4-0.3,0.5,0.1,0.8c0.4,0.3,0.9,0.7,1.4,1
			c1.9,1.3,3.9,2.3,6,3.4c0.7,0.3,0.7,0.3,0.8-0.4c0,0,0,0,0-0.1c0.4-4.1,2.3-7.3,5.8-9.5c2.4-1.5,5.1-2.3,8-1.9
			c5.4,0.8,9.2,3.8,11.1,9c1.2,3.3,1.3,6.7,0.7,10.1c-0.4,2.4-0.8,4.9-1.1,7.3c-0.2,1.2-0.2,2.5-0.1,3.8c0.2,2.4,0.8,4.6,1.6,6.8
			c0.8,2,1.8,3.9,3.3,5.6c0.1,0.1,0.2,0.1,0.2,0.2c0-0.1,0.1-0.2,0.1-0.3c0-2.4,0.4-4.7,1-7.1c0.7-3.2,1.5-6.4,2.2-9.6
			c0.6-2.9,1-5.8,1.2-8.7c0.1-2.2-0.1-4.4-0.5-6.5c-1.4-6.4-5-11.2-10.7-14.3C50.9,33.8,47.7,33.1,44.3,33.2z M31.5,92.7
			c2.3,0,4.6,0,6.9,0c2.8,0,5.6,0,8.4,0c0.6,0,0.7,0,0.8-0.6c0.5-1.9,0.8-3.8,0.9-5.7c0.1-2,0-3.9-0.1-5.9c-0.1-2.4-0.7-4.8-1.5-7.1
			c-1.2-3.6-3-6.8-5.2-9.8c-2-2.7-4.3-5.1-7-7.1c-0.2-0.1-0.4-0.2-0.6-0.4c0,0.2,0.1,0.5,0.1,0.7c0.6,2.3,1.7,4.3,2.9,6.4
			c1.2,2.1,2.5,4.2,3.6,6.3c1.3,2.4,2.1,5,2.4,7.8c0.2,1.2,0.3,2.4,0.4,3.5c0.1,2-0.4,3.8-1.9,5.3c-1.1,1.1-2.5,1.8-4,2.4
			c-3.1,1.1-6.3,1.5-9.6,1.6c-2.6,0.1-5.2,0-7.8,0c-1,0-1.9,0.2-2.8,0.5c-0.6,0.2-1.1,0.5-1.5,1.1c-0.1,0.2-0.2,0.5-0.2,0.7
			c0.2,0,0.4,0.1,0.7,0.1C21.4,92.7,26.5,92.7,31.5,92.7z M9.9,24.5c0.1,1,0.1,2,0.2,2.9c0.1,0.8,0.3,1.6,0.5,2.5
			c0.2,0.6,0.2,0.6,0.7,0.3c0.3-0.2,0.7-0.5,1-0.7c3.1-1.7,6.4-2.1,9.8-1.7c1.1,0.2,2.2,0.3,3.2,0.5c0.8,0.1,1.4-0.2,1.9-0.8
			c0.3-0.4,0.5-0.8,0.7-1.3c0.3-0.8,0.1-1.2-0.6-1.7c-1-0.7-2-1.3-3-2.1c-1.8-1.4-3.6-2.9-5.4-4.4c-0.9-0.7-1.8-1.4-2.8-1.8
			c-1.5-0.5-3.1-0.5-4.6-0.7c-0.3,0-0.4,0.1-0.5,0.4c-0.1,0.3-0.2,0.7-0.2,1C10.5,19.5,9.9,21.9,9.9,24.5z M13.2,63.2
			c0,0.3,0,0.5,0,0.8c0,1.9,0.8,3.5,2.2,4.7c1,0.9,2.2,1.4,3.6,1.2c0.3,0,0.7-0.1,0.8-0.5c0.1-0.4-0.3-0.5-0.6-0.7
			c-0.6-0.4-1.3-0.7-1.9-1.2c-1.3-0.9-1.9-2.1-2-3.7c-0.1-2,0.2-4,0.5-6c0.6-3.6,1.5-7.2,3-10.5c0.2-0.4,0.1-0.6-0.2-0.9
			c-0.8-0.8-1.6-1.6-2.4-2.4c-1.7-1.9-3.3-3.8-4.6-6c-0.4-0.7-0.8-1.4-1.3-2.1c0-0.1-0.1-0.1-0.2-0.2c-0.1,0.1-0.1,0.2-0.2,0.3
			c0,0.1-0.1,0.1-0.1,0.2C9.4,38,9.3,40,9.7,41.9c0.4,1.6,1.2,2.9,2.3,4.2c0.7,0.9,1.5,1.8,2.1,2.8c0.8,1.3,1.2,2.8,0.9,4.4
			c-0.3,1.3-0.5,2.5-0.8,3.8C13.7,59.1,13.2,61.1,13.2,63.2z M86.4,92.7c3.7,0,7.3,0,11,0c0.2,0,0.4,0,0.6-0.1
			c-0.2-0.1-0.3-0.3-0.5-0.4c-1.1-0.5-2.2-1.2-3.4-1.6c-2.8-1-5.6-1.4-8.6-1.4c-2.6,0-5.3,0.2-7.9,0.2c-1.9,0-3.8-0.1-5.7-0.1
			c-0.5,0-1-0.1-1.5-0.2c-1.5-0.2-2.9-0.5-4.3-0.9c-0.1,0-0.2,0-0.2,0c0,0.1,0.1,0.1,0.1,0.2c1.4,1.7,3.1,2.9,5.2,3.6
			c1.5,0.5,3,0.7,4.5,0.7C79.2,92.7,82.8,92.7,86.4,92.7z M9.4,10.8C9.3,8.9,8.5,6.9,6.9,5.3c-0.9-1-2-1.6-3.3-1.9
			c-0.4-0.1-0.5,0-0.4,0.4c0.2,0.9,0.4,1.7,0.7,2.6c0.8,2.3,2.2,4.2,4.4,5.5C9.4,12.4,9.4,12.4,9.4,10.8z"/>
	</defs>
	<clipPath id="SVGID_00000064354229390008878050000005658357059420063900_">
		<use xlink:href="#SVGID_1_"  style="overflow:visible;"/>
	</clipPath>
	<g style="clip-path:url(#SVGID_00000064354229390008878050000005658357059420063900_);">
		
			<linearGradient id="SVGID_00000157287184164826899440000007346836226808478142_" gradientUnits="userSpaceOnUse" x1="-475.1089" y1="86.7311" x2="-256.2946" y2="-0.4775" gradientTransform="matrix(-1 0 0 1 -332.6815 0)">
			<stop  offset="0" style="stop-color:#EE7B20"/>
			<stop  offset="0.1869" style="stop-color:#EF7A28"/>
			<stop  offset="0.217" style="stop-color:#EC6E30"/>
			<stop  offset="0.3505" style="stop-color:#E33F52"/>
			<stop  offset="0.4684" style="stop-color:#DC1D6B"/>
			<stop  offset="0.5653" style="stop-color:#D8087A"/>
			<stop  offset="0.629" style="stop-color:#D6007F"/>
			<stop  offset="1" style="stop-color:#94599C"/>
		</linearGradient>
		<polygon style="fill:url(#SVGID_00000157287184164826899440000007346836226808478142_);" points="128.5,-11.1 128.5,106.9 
			-38.3,106.9 -38.3,-11.1 		"/>
		
			<linearGradient id="SVGID_00000142161142462670682290000014853231594813273774_" gradientUnits="userSpaceOnUse" x1="13.015" y1="-65.6454" x2="54.2105" y2="80.2845">
			<stop  offset="0.15" style="stop-color:#671566"/>
			<stop  offset="0.8402" style="stop-color:#E4C2DD;stop-opacity:2.691383e-02"/>
		</linearGradient>
		<polygon style="fill:url(#SVGID_00000142161142462670682290000014853231594813273774_);" points="128.5,-11.1 128.5,106.9 
			-38.3,106.9 -38.3,-11.1 		"/>
	</g>
</g>
<g>
	<defs>
		
			<text id="SVGID_00000117673959334235160030000010647133313073584778_" transform="matrix(1 0 0 1 97.9509 66.8928)" class="st3 st4 st5">WAALLABY-NET</text>
	</defs>
	<clipPath id="SVGID_00000168839758389082893490000005302590623799495347_">
		<use xlink:href="#SVGID_00000117673959334235160030000010647133313073584778_"  style="overflow:visible;"/>
	</clipPath>
	<g style="clip-path:url(#SVGID_00000168839758389082893490000005302590623799495347_);">
		<defs>
			
				<text id="SVGID_00000059989931540861263080000008811237034850235534_" transform="matrix(1 0 0 1 97.9509 66.8928)" class="st3 st4 st5">WAALLABY-NET</text>
		</defs>
		<clipPath id="SVGID_00000158723672884701754350000012350551451983841951_">
			<use xlink:href="#SVGID_00000059989931540861263080000008811237034850235534_"  style="overflow:visible;"/>
		</clipPath>
		<g style="clip-path:url(#SVGID_00000158723672884701754350000012350551451983841951_);">
			
				<linearGradient id="SVGID_00000109720120862974441820000011291658492601861761_" gradientUnits="userSpaceOnUse" x1="-3816.0356" y1="2075.8865" x2="-3391.9905" y2="1906.8828" gradientTransform="matrix(1 0 0 -1 3904.8884 2056.856)">
				<stop  offset="0" style="stop-color:#EE7B20"/>
				<stop  offset="0.1869" style="stop-color:#EF7A28"/>
				<stop  offset="0.217" style="stop-color:#EC6E30"/>
				<stop  offset="0.3505" style="stop-color:#E33F52"/>
				<stop  offset="0.4684" style="stop-color:#DC1D6B"/>
				<stop  offset="0.5653" style="stop-color:#D8087A"/>
				<stop  offset="0.629" style="stop-color:#D6007F"/>
				<stop  offset="1" style="stop-color:#94599C"/>
			</linearGradient>
			<polygon style="fill:url(#SVGID_00000109720120862974441820000011291658492601861761_);" points="93.8,115.1 93.8,-2.8 
				461.2,-2.8 461.2,115.1 			"/>
			
				<linearGradient id="SVGID_00000099628277830818385270000001389509052475130785_" gradientUnits="userSpaceOnUse" x1="3251.637" y1="1848.1604" x2="3306.9631" y2="2044.1467" gradientTransform="matrix(-1 0 0 -1 3572.207 2056.856)">
				<stop  offset="0.15" style="stop-color:#671566"/>
				<stop  offset="0.8402" style="stop-color:#E4C2DD;stop-opacity:2.691383e-02"/>
			</linearGradient>
			<polygon style="fill:url(#SVGID_00000099628277830818385270000001389509052475130785_);" points="93.8,115.1 93.8,-2.8 
				461.2,-2.8 461.2,115.1 			"/>
		</g>
	</g>
</g>
</svg>
