<?xml version="1.0" encoding="utf-8"?>
<!-- Generator: Adobe Illustrator 25.4.1, SVG Export Plug-In . SVG Version: 6.00 Build 0)  -->
<svg version="1.1" id="Layer_1" xmlns="http://www.w3.org/2000/svg" xmlns:xlink="http://www.w3.org/1999/xlink" x="0px" y="0px"
	 viewBox="0 0 96 96" style="enable-background:new 0 0 96 96;" xml:space="preserve">
<style type="text/css">
	.st0{clip-path:url(#SVGID_00000063606995884231429100000001589686727111039912_);}
	.st1{fill:url(#SVGID_00000183229778252787304630000015772889325979864710_);}
	.st2{fill:url(#SVGID_00000029021738877296465960000005009757974614919306_);}
</style>
<g>
	<defs>
		<path id="SVGID_1_" d="M29.8,90.7c-5.2,0-10.3,0-15.5,0c-0.2,0-0.3,0-0.5,0c-0.3,0-0.4-0.1-0.5-0.4c-0.8-2.4,0.3-4.7,2.6-5.7
			c1.3-0.5,2.6-0.8,4-0.8c2.2,0,4.4,0.1,6.6,0c2.8-0.1,5.5-0.4,8.1-1.3c0.9-0.3,1.8-0.7,2.6-1.3c1.1-0.8,1.6-2,1.5-3.3
			c-0.1-1.1-0.2-2.3-0.4-3.4c-0.4-2.8-1.4-5.4-2.8-7.9c-1.1-1.9-2.3-3.8-3.3-5.7c-1.3-2.3-2.1-4.7-2.5-7.3c0-0.3-0.2-0.5-0.5-0.7
			c-1-0.5-2-1.1-3.1-1.6c-1.8-0.9-3.5-1.9-5.1-3.1c-0.4-0.3-0.5-0.3-0.6,0.2c-0.5,1.5-1,2.9-1.4,4.4c-0.6,2.3-1,4.6-1.3,6.9
			c-0.1,0.8,0,1.6,0,2.4c0,0.6,0.4,1.1,0.9,1.4c0.4,0.3,0.9,0.5,1.4,0.8c0.4,0.2,0.8,0.5,1.1,0.8c1.2,1.4,0.9,3.4-0.8,4.2
			c-0.9,0.5-2,0.6-3,0.4c-3.1-0.6-5.6-3.1-6.2-6.3c-0.3-1.8-0.2-3.7,0.2-5.5c0.4-1.9,0.8-3.8,1.2-5.6c0.3-1.2,0-2.3-0.7-3.3
			c-0.6-0.8-1.2-1.5-1.8-2.3c-1.2-1.5-2-3.1-2.3-4.9c-0.5-2.8-0.1-5.5,1.4-8c0.2-0.4,0.3-0.7,0.1-1.1c-0.6-1.6-1-3.2-1.1-4.9
			c-0.1-1.4,0-2.8,0-4.2c0.1-2.1,0.7-4,1.1-6c0.1-0.5,0.1-0.5-0.4-0.7c-1.3-0.6-2.4-1.3-3.4-2.3C3.6,12.9,2.6,10.8,2,8.5
			C1.6,7.3,1.4,6,1.4,4.7c0-0.6,0.1-0.7,0.7-0.7c3.2-0.3,5.7,0.9,7.6,3.4c1.3,1.7,2.1,3.6,2.2,5.7c0,0.5,0,1-0.1,1.5
			c-0.1,0.6,0,0.7,0.7,0.8c0.8,0.1,1.6,0.1,2.4,0.3c1.9,0.3,3.5,1.1,4.9,2.3c2.4,2.2,5,4.2,7.7,6c1.4,0.9,1.9,2.1,1.5,3.9
			c-0.5,1.8-1.6,3.2-3.5,3.7c-0.9,0.3-1.8,0.1-2.7-0.1c-1.4-0.3-2.7-0.5-4.1-0.4c-1.9,0.1-3.8,0.5-5.5,1.5c-0.4,0.2-0.7,0.5-1,0.8
			c-0.4,0.3-0.4,0.4-0.2,0.8c0.6,1.1,1.2,2.2,1.9,3.3c1.5,2.3,3.2,4.3,5.2,6.2c0.1,0.1,0.2,0.2,0.3,0.3c0.2,0.2,0.3,0.2,0.5-0.1
			c0.5-0.7,1-1.5,1.5-2.2c1.8-2.5,3.9-4.6,6.5-6.3c2.7-1.8,5.7-2.9,8.9-3.5c2.2-0.4,4.5-0.5,6.8-0.3c3.2,0.2,6.2,1.2,8.9,2.9
			c5.4,3.4,8.7,8.2,9.9,14.5c0.2,1.1,0.3,2.2,0.4,3.3c0.3,3.7-0.2,7.3-1,10.8c-0.7,3.2-1.5,6.4-2.2,9.6c-0.4,2-0.8,3.9-0.7,6
			c0,0.5,0.1,1.1,0.2,1.6c0.1,0.4,0.3,0.7,0.7,0.9c1.6,0.8,3.2,1.3,5,1.6c2.3,0.4,4.6,0.5,6.9,0.4c2.6-0.1,5.2-0.2,7.8-0.2
			c3.2,0,6.4,0.6,9.4,1.8c2,0.8,3.9,1.9,5.4,3.6c0.6,0.6,1,1.4,1.5,2.1c0.2,0.3,0.1,0.4-0.2,0.4c-0.1,0-0.3,0-0.4,0
			c-8.4,0-16.7,0-25.1,0c-2.8,0-5.4-0.7-7.8-2.3c-2.1-1.4-3.6-3.3-4.6-5.6c-0.1-0.3-0.3-0.5-0.6-0.7c-1.9-1.3-3.4-3-4.5-5
			c-1.6-2.8-2.6-5.8-3-9c-0.2-1.6-0.3-3.3-0.1-4.9c0.3-2.2,0.6-4.3,1-6.5c0.5-2.9,0.5-5.8-0.5-8.5c-1.3-3.5-3.9-5.7-7.5-6.6
			c-1.6-0.4-3.2-0.1-4.7,0.4c-2,0.7-3.7,2-4.8,3.9c-0.7,1.1-1,2.3-1.2,3.6c-0.1,0.6-0.1,1.2-0.1,1.8c0,0.3,0.1,0.5,0.4,0.6
			c2.3,1.4,4.3,3,6.1,5c3.6,3.9,6.5,8.1,8.1,13.2c0.8,2.3,1.3,4.7,1.5,7.2c0.1,1.8,0.2,3.7,0.1,5.5c-0.1,2.5-0.6,4.9-1.4,7.3
			c-0.2,0.7-0.2,0.7-1,0.7C40.3,90.7,35,90.7,29.8,90.7z M41.7,33.8c-0.8,0-1.6,0-2.4,0.1c-0.8,0.1-1.6,0.2-2.4,0.3
			c-2.9,0.5-5.5,1.6-7.9,3.3c-2,1.4-3.8,3.2-5.3,5.1c-0.7,0.9-1.3,1.8-1.9,2.7c-0.3,0.4-0.3,0.4,0.1,0.7c0.4,0.3,0.8,0.6,1.3,0.9
			c1.7,1.2,3.6,2.1,5.5,3.1c0.6,0.3,0.6,0.3,0.7-0.4c0,0,0,0,0-0.1c0.4-3.8,2.1-6.7,5.3-8.7c2.2-1.4,4.7-2.1,7.3-1.7
			c5,0.8,8.4,3.5,10.2,8.2c1.1,3,1.2,6.2,0.7,9.3c-0.3,2.2-0.7,4.5-1,6.7c-0.1,1.1-0.2,2.3-0.1,3.5c0.2,2.2,0.7,4.3,1.5,6.3
			c0.7,1.9,1.7,3.6,3,5.1c0.1,0.1,0.2,0.1,0.2,0.2c0-0.1,0.1-0.2,0.1-0.3c0-2.2,0.4-4.3,0.9-6.5c0.7-2.9,1.3-5.9,2-8.8
			c0.6-2.6,1-5.3,1.1-8c0.1-2-0.1-4-0.5-6c-1.3-5.9-4.6-10.2-9.8-13.1C47.7,34.3,44.8,33.7,41.7,33.8z M29.9,88.4c2.1,0,4.2,0,6.3,0
			c2.6,0,5.1,0,7.7,0c0.6,0,0.6,0,0.7-0.5c0.4-1.7,0.8-3.5,0.8-5.2c0.1-1.8,0-3.6-0.1-5.4c-0.1-2.2-0.7-4.4-1.4-6.5
			c-1.1-3.3-2.7-6.2-4.8-8.9c-1.9-2.5-3.9-4.7-6.4-6.5c-0.2-0.1-0.4-0.2-0.6-0.3c0,0.2,0.1,0.5,0.1,0.7c0.6,2.1,1.5,4,2.6,5.8
			c1.1,1.9,2.3,3.8,3.3,5.8c1.2,2.2,1.9,4.6,2.2,7.1c0.1,1.1,0.3,2.2,0.3,3.2c0.1,1.9-0.4,3.5-1.7,4.9c-1,1-2.3,1.7-3.7,2.2
			c-2.8,1-5.8,1.4-8.8,1.5c-2.4,0.1-4.8,0-7.1,0c-0.9,0-1.7,0.2-2.6,0.5c-0.5,0.2-1.1,0.5-1.3,1c-0.1,0.2-0.1,0.4-0.2,0.6
			c0.2,0,0.4,0.1,0.6,0.1C20.7,88.4,25.3,88.4,29.9,88.4z M10.1,25.9c0.1,0.9,0.1,1.8,0.2,2.7c0.1,0.8,0.3,1.5,0.5,2.3
			c0.1,0.6,0.2,0.6,0.6,0.2c0.3-0.2,0.6-0.5,1-0.6c2.8-1.6,5.8-2,9-1.5c1,0.1,2,0.3,3,0.5c0.7,0.1,1.3-0.2,1.7-0.8
			c0.3-0.4,0.5-0.8,0.7-1.2c0.3-0.7,0.1-1.1-0.5-1.5c-0.9-0.6-1.9-1.2-2.7-1.9c-1.7-1.3-3.3-2.7-4.9-4c-0.8-0.7-1.6-1.3-2.6-1.6
			c-1.4-0.5-2.8-0.5-4.2-0.7c-0.3,0-0.4,0.1-0.4,0.4c-0.1,0.3-0.1,0.6-0.2,0.9C10.7,21.2,10.1,23.5,10.1,25.9z M13.2,61.3
			c0,0.2,0,0.5,0,0.7c0,1.8,0.7,3.2,2,4.3c1,0.8,2,1.3,3.3,1.1c0.3,0,0.7-0.1,0.8-0.5c0.1-0.4-0.3-0.5-0.5-0.6
			c-0.6-0.4-1.2-0.7-1.8-1.1c-1.2-0.8-1.7-2-1.8-3.4c-0.1-1.8,0.2-3.7,0.5-5.5c0.6-3.3,1.4-6.6,2.7-9.7c0.2-0.4,0.1-0.6-0.2-0.8
			c-0.7-0.7-1.5-1.4-2.2-2.2c-1.6-1.7-3-3.5-4.2-5.5c-0.4-0.6-0.8-1.3-1.2-1.9c0-0.1-0.1-0.1-0.2-0.2c-0.1,0.1-0.1,0.1-0.2,0.2
			c0,0.1-0.1,0.1-0.1,0.2c-0.6,1.7-0.7,3.5-0.3,5.3c0.3,1.5,1.1,2.7,2.1,3.9c0.7,0.8,1.3,1.7,1.9,2.6c0.8,1.2,1.1,2.6,0.8,4
			c-0.2,1.2-0.5,2.3-0.7,3.4C13.6,57.6,13.1,59.4,13.2,61.3z M80.2,88.4c3.4,0,6.7,0,10.1,0c0.2,0,0.4,0,0.5-0.1
			c-0.2-0.1-0.3-0.3-0.5-0.3c-1-0.5-2.1-1.1-3.1-1.5c-2.5-0.9-5.2-1.3-7.9-1.3c-2.4,0-4.8,0.2-7.2,0.2c-1.8,0-3.5-0.1-5.3-0.1
			c-0.5,0-0.9-0.1-1.4-0.2c-1.3-0.2-2.7-0.4-3.9-0.9c-0.1,0-0.1,0-0.2,0c0,0.1,0.1,0.1,0.1,0.2c1.3,1.6,2.9,2.7,4.8,3.3
			c1.4,0.5,2.8,0.6,4.2,0.6C73.7,88.4,77,88.4,80.2,88.4z M9.7,13.2c-0.1-1.7-0.9-3.5-2.3-5C6.6,7.3,5.5,6.7,4.3,6.4
			C4,6.3,3.9,6.4,4,6.7c0.2,0.8,0.4,1.6,0.6,2.4c0.8,2.1,2,3.9,4,5.1C9.6,14.8,9.7,14.7,9.7,13.2z"/>
	</defs>
	<clipPath id="SVGID_00000058574688470940143130000002233543793703961769_">
		<use xlink:href="#SVGID_1_"  style="overflow:visible;"/>
	</clipPath>
	<g style="clip-path:url(#SVGID_00000058574688470940143130000002233543793703961769_);">
		
			<linearGradient id="SVGID_00000046334133508085662930000014146137752864214441_" gradientUnits="userSpaceOnUse" x1="-824.3356" y1="82.9229" x2="-623.6578" y2="2.9427" gradientTransform="matrix(-1 0 0 1 -692.6815 0)">
			<stop  offset="0" style="stop-color:#EE7B20"/>
			<stop  offset="0.1869" style="stop-color:#EF7A28"/>
			<stop  offset="0.217" style="stop-color:#EC6E30"/>
			<stop  offset="0.3505" style="stop-color:#E33F52"/>
			<stop  offset="0.4684" style="stop-color:#DC1D6B"/>
			<stop  offset="0.5653" style="stop-color:#D8087A"/>
			<stop  offset="0.629" style="stop-color:#D6007F"/>
			<stop  offset="1" style="stop-color:#94599C"/>
		</linearGradient>
		<polygon style="fill:url(#SVGID_00000046334133508085662930000014146137752864214441_);" points="118.9,-6.8 118.9,101.4 
			-34.1,101.4 -34.1,-6.8 		"/>
		
			<linearGradient id="SVGID_00000099655373121984181780000014566230417476493474_" gradientUnits="userSpaceOnUse" x1="12.968" y1="-56.8237" x2="50.749" y2="77.0106">
			<stop  offset="0.15" style="stop-color:#671566"/>
			<stop  offset="0.8402" style="stop-color:#E4C2DD;stop-opacity:2.691383e-02"/>
		</linearGradient>
		<polygon style="fill:url(#SVGID_00000099655373121984181780000014566230417476493474_);" points="118.9,-6.8 118.9,101.4 
			-34.1,101.4 -34.1,-6.8 		"/>
	</g>
</g>
</svg>
